name Walk2.mot
datacolumns 19
datarows 12
range 2.46500000 2.52000000
endheader

                time	   L_ground_force_vx	   L_ground_force_vy	   L_ground_force_vz	   L_ground_force_px	   L_ground_force_py	   L_ground_force_pz	   R_ground_force_vx	   R_ground_force_vy	   R_ground_force_vz	   R_ground_force_px	   R_ground_force_py	   R_ground_force_pz	   L_ground_torque_x	   L_ground_torque_y	   L_ground_torque_z	   R_ground_torque_x	   R_ground_torque_y	   R_ground_torque_z	
          2.46500000	          0.00000000	          0.00000000	         -0.00000000	         -0.00000000	          0.00000000	         -0.00000000	          0.17421769	          1.43013162	          0.18861591	          0.05020558	          0.00000000	          0.01741966	          0.00000000	          0.00000000	          0.00000000	          0.00000000	         -0.01429508	          0.00000000	
          2.47000000	         -0.00000000	         -0.00000000	          0.00000000	         -0.00000000	          0.00000000	         -0.00000000	         -0.16045344	         -0.93178258	         -0.06555712	         -0.00709193	          0.00000000	         -0.00212893	          0.00000000	         -0.00000000	          0.00000000	          0.00000000	          0.00650046	          0.00000000	
          2.47500000	         -0.00000000	         -0.00000000	          0.00000000	          0.00000000	          0.00000000	          0.00000000	         -0.06408687	         -0.41756782	         -0.03892743	         -0.00744496	          0.00000000	         -0.00248974	          0.00000000	         -0.00000000	          0.00000000	          0.00000000	          0.00338166	          0.00000000	
          2.48000000	         -0.00000000	         -0.00000000	          0.00000000	          0.00000000	          0.00000000	          0.00000000	         -0.00063496	         -0.01647250	         -0.00384778	         -0.00132686	          0.00000000	         -0.00047007	          0.00000000	         -0.00000000	          0.00000000	          0.00000000	          0.00024686	          0.00000000	
          2.48500000	          0.00000000	          0.00000000	         -0.00000000	         -0.00000000	          0.00000000	          0.00000000	          0.00677544	          0.04067294	          0.00314063	          0.00043424	          0.00000000	          0.00013780	          0.00000000	          0.00000000	          0.00000000	          0.00000000	         -0.00029744	          0.00000000	
          2.49000000	          0.00000000	          0.00000000	         -0.00000000	         -0.00000000	          0.00000000	         -0.00000000	          0.00197680	          0.01324056	          0.00130190	          0.00026626	          0.00000000	          0.00008981	          0.00000000	          0.00000000	          0.00000000	          0.00000000	         -0.00011054	          0.00000000	
          2.49500000	          0.00000000	          0.00000000	         -0.00000000	         -0.00000000	          0.00000000	         -0.00000000	         -0.00017858	         -0.00068513	          0.00002580	          0.00002785	          0.00000000	          0.00001034	          0.00000000	          0.00000000	          0.00000000	          0.00000000	          0.00000115	          0.00000000	
          2.50000000	         -0.00000000	         -0.00000000	          0.00000000	          0.00000000	          0.00000000	          0.00000000	         -0.00026479	         -0.00162969	         -0.00013401	         -0.00002105	          0.00000000	         -0.00000683	          0.00000000	         -0.00000000	          0.00000000	          0.00000000	          0.00001232	          0.00000000	
          2.50500000	         -0.00000000	         -0.00000000	          0.00000000	          0.00000000	          0.00000000	          0.00000000	         -0.00005519	         -0.00038456	         -0.00004053	         -0.00000895	          0.00000000	         -0.00000305	          0.00000000	         -0.00000000	          0.00000000	          0.00000000	          0.00000334	          0.00000000	
          2.51000000	         -0.00000000	         -0.00000000	          0.00000000	          0.00000000	          0.00000000	          0.00000000	          0.00001319	          0.00006855	          0.00000313	         -0.00000024	          0.00000000	         -0.00000012	          0.00000000	         -0.00000000	          0.00000000	          0.00000000	         -0.00000040	          0.00000000	
          2.51500000	          0.00000000	          0.00000000	         -0.00000000	         -0.00000000	          0.00000000	         -0.00000000	          0.00000970	          0.00006103	          0.00000528	          0.00000090	          0.00000000	          0.00000030	          0.00000000	          0.00000000	          0.00000000	          0.00000000	         -0.00000047	          0.00000000	
          2.52000000	          0.00000000	          0.00000000	         -0.00000000	         -0.00000000	          0.00000000	         -0.00000000	          0.00000130	          0.00000975	          0.00000115	          0.00000028	          0.00000000	          0.00000010	          0.00000000	          0.00000000	          0.00000000	          0.00000000	         -0.00000009	          0.00000000	
